<svg width="200px"  height="200px"  xmlns="http://www.w3.org/2000/svg" viewBox="0 0 100 100" preserveAspectRatio="xMidYMid" class="lds-shopping" style="background: none;"><defs><clipPath id="cp" x="0" y="0" width="100" height="100"><rect x="0" y="5" width="100" height="46"></rect></clipPath></defs><svg id="Layer_1" data-name="Layer 1" xmlns="http://www.w3.org/2000/svg" xmlns:xlink="http://www.w3.org/1999/xlink" viewBox="15 0 115.42 189.81"><defs><style>.cls-1{fill:none;}.cls-2{clip-path:url(#clip-path);}.cls-3{fill:#fdd922;}.cls-4{fill:#108bea;}.cls-5{clip-path:url(#clip-path-2);}</style><clipPath id="clip-path" transform="translate(-1.1 -10)"><rect class="cls-1" x="21.1" y="10" width="119.9" height="92"/></clipPath><clipPath id="clip-path-2" transform="translate(-1.1 -10)"><rect class="cls-1" x="1.1" y="90.59" width="115.42" height="109.41"/></clipPath></defs><title>loading1</title><g class="cls-2"><path class="cls-1" d="M90.09,101.41c0.17-.85.46-1.72,0.63-2.57,0.07-.62.24-1.47,0.31-2.09-6.85-.82-6.26-15.29.58-14.68l-0.18-2.18A18.19,18.19,0,0,0,91,77.18a47.24,47.24,0,0,0-3-10l-4.8,3.35,1.47,5.92L71.41,75.1,70.54,99.34l13.19,1.35-2,5.51,4.49,4.4A34.74,34.74,0,0,0,90.09,101.41Z" transform="translate(-1.1 -10)"/><path class="cls-1" d="M69.93,47.66L69.42,46l2.86,0.94-1.55-4.08,2.41-3L67.41,38l1.13-9.56L66,30.82l-1.79-4-0.57,4.78-0.47-1.3c-0.46-1.1-1.2-1.33-1.86-.57l-2.33,2.57a2.88,2.88,0,0,0-.46,3.14l0.14,0.17-5,5.41a3.66,3.66,0,0,0-.41,3.73l1.23,3.14L55.68,51,56.9,54l1.23,3.14c0.47,1.3,1.47,1.67,2.25.88l4.86-5.58,0.14,0.17c0.46,1.1,1.2,1.33,1.86.57l2.33-2.57A2.7,2.7,0,0,0,69.93,47.66Z" transform="translate(-1.1 -10)"/><path class="cls-1" d="M103.88,50.46l3.8,12L108,63.43l1.12-1.07-4.12-13c-0.49-1.5-1.63-2-2.56-1.62a0.42,0.42,0,0,0-.34.28l-9.23,8.23c-1.24,1.1-1.63,3.61-1,5.68L95.2,72.5c0.32,0.93,1.08,1.36,1.64.83l8.56-7.66,1.12-1.07-0.3-.74-0.32-.93-2-6-1.64-5.07a2.44,2.44,0,0,1,.1-1.64c0.1-.23.1-0.23,0.22-0.25C103.06,49.44,103.69,49.7,103.88,50.46Z" transform="translate(-1.1 -10)"/><polygon class="cls-1" points="91.76 9.04 88.23 13.1 88.1 20.2 84.83 15.92 80.66 18.11 82.14 11.3 79.59 5.44 83.97 5.62 86.4 0 87.69 6.76 91.76 9.04"/></g><path class="cls-3" d="M114.57,109.48L103.5,141.43a9.9,9.9,0,0,1-9.36,6.66H32.52l-0.31.05L26.1,109.51l0.2,0h88.28Zm0,0" transform="translate(-1.1 -10)"/><path class="cls-3" d="M96.35,188.8a9.05,9.05,0,1,1-9.05-9.05,9.05,9.05,0,0,1,9.05,9.05h0Zm0,0" transform="translate(-1.1 -10)"/><path class="cls-3" d="M55.6,188.8a9.05,9.05,0,1,1-9.05-9.05,9.05,9.05,0,0,1,9.05,9.05h0Zm0,0" transform="translate(-1.1 -10)"/><path class="cls-4" d="M57.55,188.8a11,11,0,1,0-11,11,11,11,0,0,0,11-11h0Zm-18.1,0a7.1,7.1,0,1,1,7.1,7.1,7.1,7.1,0,0,1-7.1-7.1h0Zm0,0" transform="translate(-1.1 -10)"/><g class="cls-5"><path class="cls-4" d="M87.3,199.81a11,11,0,1,0-11-11,11,11,0,0,0,11,11h0Zm0-18.1a7.1,7.1,0,1,1-7.1,7.1,7.1,7.1,0,0,1,7.1-7.1h0Zm0,0" transform="translate(-1.1 -10)"/><path class="cls-4" d="M3.05,94.54H15a7.92,7.92,0,0,1,7.85,6.71l9.42,59.52a11.8,11.8,0,0,0,11.71,10h58.25a2,2,0,1,0,0-3.9H43.94a7.91,7.91,0,0,1-7.85-6.71L34.49,150H94.14a11.86,11.86,0,0,0,11.2-8l11.07-31.94a2,2,0,0,0-1.84-2.59H27.76l-1.09-6.9A11.8,11.8,0,0,0,15,90.63H3.05a2,2,0,0,0,0,3.9h0Zm108.77,16.9-10.17,29.35a8,8,0,0,1-7.51,5.35H33.87l-5.5-34.7h83.45Zm0,0" transform="translate(-1.1 -10)"/></g></svg><g clip-path="url(#cp)"><g transform="translate(0 8.54029)"><g transform="translate(50,41)"><path d="M6.5-6.7C6.1-6.9,5.7-7.2,5.3-7.4C5-7.5,4.6-7.7,4.3-7.8C3.1-2.2-4-3.7-2.9-9.3c-0.4,0-0.7,0-1.1,0 c-0.5,0-1,0.1-1.4,0.2c-1.8,0.3-3.6,0.9-5.3,1.8l1.1,4.2l3.1-0.8L-8.7,6.9L3.2,9.3L5.4-1.5l2.5,2l2.7-3.4C9.5-4.4,8.1-5.7,6.5-6.7z" ng-attr-fill="{{config.c1}}" fill="#f11b1b" transform="rotate(81.9868)"><animateTransform attributeName="transform" type="rotate" keyTimes="0;1" values="0;360" ng-attr-dur="{{config.rotateSpeed}}s" repeatCount="indefinite" dur="0.95s"></animateTransform></path></g><animateTransform attributeName="transform" type="translate" keyTimes="0;1" values="0 0;0 75" ng-attr-dur="{{config.speed1}}s" repeatCount="indefinite" dur="1.9s"></animateTransform></g><g transform="translate(0 8.54029)"><g transform="translate(35,17)"><path d="M3.4-5.3L2.5-5l0.8-2.3L1.1-6.3l-1.2-2.2l-1.6,4.6l-4.6-1.6l0.9,2.3l-2.2,1.2l2.3,0.8L-6-0.9 c-0.6,0.3-0.8,0.9-0.5,1.5l1,2.1C-5.2,3.4-4.6,3.6-4,3.3l0.1-0.1l2.1,4.5C-1.4,8.4-0.7,8.7,0,8.3l1.7-0.8l1.7-0.8L5,5.9l1.7-0.8 C7.4,4.8,7.7,4,7.4,3.3L5.2-1.1l0.1-0.1c0.6-0.3,0.8-0.9,0.5-1.5l-1-2.1C4.6-5.4,3.9-5.6,3.4-5.3z" ng-attr-fill="{{config.c2}}" fill="#a1f44c" transform="rotate(81.9868)"><animateTransform attributeName="transform" type="rotate" keyTimes="0;1" values="0;360" ng-attr-dur="{{config.rotateSpeed}}s" repeatCount="indefinite" dur="0.95s"></animateTransform></path></g><animateTransform attributeName="transform" type="translate" keyTimes="0;1" values="0 0;0 75" ng-attr-dur="{{config.speed2}}s" repeatCount="indefinite" dur="1.9s"></animateTransform></g><g transform="translate(0 8.54029)"><g transform="translate(66,26)"><path d="M-4.5-3.7L1.9-6l0.5-0.2L2-7.2l-6.9,2.5C-5.7-4.4-6.1-3.5-6-2.7c0,0.1,0,0.2,0.1,0.3l3,8.2 C-2.5,6.9-1.3,7.4-0.2,7l5.6-2C5.9,4.8,6.2,4.2,6,3.7L3.2-3.9l-0.4-1L2.4-4.7L1.9-4.5l-3.2,1.2l-2.7,1c-0.3,0.1-0.6,0-0.8-0.2 c-0.1-0.1-0.1-0.1-0.1-0.2C-5.1-3.1-4.9-3.6-4.5-3.7z" ng-attr-fill="{{config.c3}}" fill="#fffb41" transform="rotate(81.9868)"><animateTransform attributeName="transform" type="rotate" keyTimes="0;1" values="0;360" ng-attr-dur="{{config.rotateSpeed}}s" repeatCount="indefinite" dur="0.95s"></animateTransform></path></g><animateTransform attributeName="transform" type="translate" keyTimes="0;1" values="0 0;0 75" ng-attr-dur="{{config.speed3}}s" repeatCount="indefinite" dur="1.9s"></animateTransform></g><g transform="translate(0 8.54029)"><g transform="translate(55,6)"><polygon points="0,-4.9 1.6,-1.7 5.1,-1.1 2.6,1.3 3.2,4.9 0,3.2 -3.2,4.9 -2.6,1.3 -5.1,-1.1 -1.6,-1.7" ng-attr-fill="{{config.c4}}" fill="#545454" transform="rotate(81.9868)"><animateTransform attributeName="transform" type="rotate" keyTimes="0;1" values="0;360" ng-attr-dur="{{config.rotateSpeed}}s" repeatCount="indefinite" dur="0.95s"></animateTransform></polygon></g><animateTransform attributeName="transform" type="translate" keyTimes="0;1" values="0 0;0 75" ng-attr-dur="{{config.speed4}}s" repeatCount="indefinite" dur="1.9s"></animateTransform></g></g><g clip-path="url(#cp)"><g transform="translate(0,-75)"><g transform="translate(0 8.54029)"><g transform="translate(50,41)"><path d="M6.5-6.7C6.1-6.9,5.7-7.2,5.3-7.4C5-7.5,4.6-7.7,4.3-7.8C3.1-2.2-4-3.7-2.9-9.3c-0.4,0-0.7,0-1.1,0 c-0.5,0-1,0.1-1.4,0.2c-1.8,0.3-3.6,0.9-5.3,1.8l1.1,4.2l3.1-0.8L-8.7,6.9L3.2,9.3L5.4-1.5l2.5,2l2.7-3.4C9.5-4.4,8.1-5.7,6.5-6.7z" ng-attr-fill="{{config.c1}}" fill="#f11b1b" transform="rotate(81.9868)"><animateTransform attributeName="transform" type="rotate" keyTimes="0;1" values="0;360" ng-attr-dur="{{config.rotateSpeed}}s" repeatCount="indefinite" dur="0.95s"></animateTransform></path></g><animateTransform attributeName="transform" type="translate" keyTimes="0;1" values="0 0;0 75" ng-attr-dur="{{config.speed1}}s" repeatCount="indefinite" dur="1.9s"></animateTransform></g><g transform="translate(0 8.54029)"><g transform="translate(35,17)"><path d="M3.4-5.3L2.5-5l0.8-2.3L1.1-6.3l-1.2-2.2l-1.6,4.6l-4.6-1.6l0.9,2.3l-2.2,1.2l2.3,0.8L-6-0.9 c-0.6,0.3-0.8,0.9-0.5,1.5l1,2.1C-5.2,3.4-4.6,3.6-4,3.3l0.1-0.1l2.1,4.5C-1.4,8.4-0.7,8.7,0,8.3l1.7-0.8l1.7-0.8L5,5.9l1.7-0.8 C7.4,4.8,7.7,4,7.4,3.3L5.2-1.1l0.1-0.1c0.6-0.3,0.8-0.9,0.5-1.5l-1-2.1C4.6-5.4,3.9-5.6,3.4-5.3z" ng-attr-fill="{{config.c2}}" fill="#a1f44c" transform="rotate(81.9868)"><animateTransform attributeName="transform" type="rotate" keyTimes="0;1" values="0;360" ng-attr-dur="{{config.rotateSpeed}}s" repeatCount="indefinite" dur="0.95s"></animateTransform></path></g><animateTransform attributeName="transform" type="translate" keyTimes="0;1" values="0 0;0 75" ng-attr-dur="{{config.speed2}}s" repeatCount="indefinite" dur="1.9s"></animateTransform></g><g transform="translate(0 8.54029)"><g transform="translate(66,26)"><path d="M-4.5-3.7L1.9-6l0.5-0.2L2-7.2l-6.9,2.5C-5.7-4.4-6.1-3.5-6-2.7c0,0.1,0,0.2,0.1,0.3l3,8.2 C-2.5,6.9-1.3,7.4-0.2,7l5.6-2C5.9,4.8,6.2,4.2,6,3.7L3.2-3.9l-0.4-1L2.4-4.7L1.9-4.5l-3.2,1.2l-2.7,1c-0.3,0.1-0.6,0-0.8-0.2 c-0.1-0.1-0.1-0.1-0.1-0.2C-5.1-3.1-4.9-3.6-4.5-3.7z" ng-attr-fill="{{config.c3}}" fill="#fffb41" transform="rotate(81.9868)"><animateTransform attributeName="transform" type="rotate" keyTimes="0;1" values="0;360" ng-attr-dur="{{config.rotateSpeed}}s" repeatCount="indefinite" dur="0.95s"></animateTransform></path></g><animateTransform attributeName="transform" type="translate" keyTimes="0;1" values="0 0;0 75" ng-attr-dur="{{config.speed3}}s" repeatCount="indefinite" dur="1.9s"></animateTransform></g><g transform="translate(0 8.54029)"><g transform="translate(55,6)"><polygon points="0,-4.9 1.6,-1.7 5.1,-1.1 2.6,1.3 3.2,4.9 0,3.2 -3.2,4.9 -2.6,1.3 -5.1,-1.1 -1.6,-1.7" ng-attr-fill="{{config.c4}}" fill="#545454" transform="rotate(81.9868)"><animateTransform attributeName="transform" type="rotate" keyTimes="0;1" values="0;360" ng-attr-dur="{{config.rotateSpeed}}s" repeatCount="indefinite" dur="0.95s"></animateTransform></polygon></g><animateTransform attributeName="transform" type="translate" keyTimes="0;1" values="0 0;0 75" ng-attr-dur="{{config.speed4}}s" repeatCount="indefinite" dur="1.9s"></animateTransform></g></g></g></svg>