<svg xmlns="http://www.w3.org/2000/svg" width="125" height="55" viewBox="0 0 125 55">
  <defs>
    <style>
      .cls-1 {
        fill: #282828;
        fill-rule: evenodd;
      }
    </style>
  </defs>
  <path id="Agatha_C." data-name="Agatha C." class="cls-1" d="M-0.256,37.843a1.407,1.407,0,0,0,.005.321,0.8,0.8,0,0,0,.164.411,0.4,0.4,0,0,0,.352.135l0.635-.2,0.125,0.148q-0.068.673-.176,1.207Q0.764,40.419.7,40.8t-0.108.534a4.913,4.913,0,0,1-.078,1.027q-0.1.7-.232,1.816a11.553,11.553,0,0,0-.168,1.548,7.039,7.039,0,0,0,.055,1.225,1.131,1.131,0,0,0,.3.692,0.667,0.667,0,0,0,.572.155A1.793,1.793,0,0,0,1.8,47.532a1.042,1.042,0,0,0,.4-0.545q0.187-.566.3-1.028T2.664,45.2q0.033-.481.032-0.844a4.438,4.438,0,0,0-.037-0.606q0.126-.558.231-0.977t0.188-.7q0.082-.717.156-1.2t0.123-.723q0.261-.909.412-1.512a4.986,4.986,0,0,0,.164-0.937,1.382,1.382,0,0,1,.187-0.566A0.527,0.527,0,0,1,4.5,36.884a2.537,2.537,0,0,0,.739-0.264,8.74,8.74,0,0,0,.945-0.563q0.881-.5,1.554-0.86a10.085,10.085,0,0,1,1.126-.528q0.3-.189.643-0.426a9.588,9.588,0,0,0,1.354-.312,5.885,5.885,0,0,0,.736-0.284,4.3,4.3,0,0,1,.536-0.379,1.1,1.1,0,0,1,.342-0.143l0.151,0.04,0.54,1.849-0.225.593a4.5,4.5,0,0,1,.129.738,7.576,7.576,0,0,1,.033.793q0.155,0.351.307,0.681,0.092,0.63.163,1.895t0.154,1.833a2.64,2.64,0,0,0,.1.421,2.522,2.522,0,0,1,.1.38,3.587,3.587,0,0,1,.015.6,3.535,3.535,0,0,0,.015.6,1.477,1.477,0,0,0,.234.681,0.432,0.432,0,0,0,.43.175,1.229,1.229,0,0,0,.8-0.459,2.378,2.378,0,0,0,.434-1.131q0.044-.546.1-1.113t0.093-1.133q-0.138-.374-0.289-0.7a2.366,2.366,0,0,1,.03-0.5q0.047-.38.17-0.958,0.011-.769-0.011-1.346a9.237,9.237,0,0,0-.076-0.943L15.81,33.176l-0.447-1.221a1.288,1.288,0,0,1,.183-0.234,4.3,4.3,0,0,1,.373-0.345A0.842,0.842,0,0,0,16.184,31a1.275,1.275,0,0,0,.027-0.6,0.59,0.59,0,0,0-.237-0.421,0.81,0.81,0,0,0-.543-0.107,0.215,0.215,0,0,1-.168-0.089,0.435,0.435,0,0,1-.082-0.206q-0.039-1.258-.093-2.472-0.427-1.221-.795-2.328,0.011-.913.026-1.806a7,7,0,0,0-.2-0.851q-0.149-.527-0.39-1.321a9.246,9.246,0,0,0-.487-1.493,0.977,0.977,0,0,0-.458-0.586l-2.622-.963a0.428,0.428,0,0,1-.238-0.141,0.58,0.58,0,0,1-.14-0.321,3.1,3.1,0,0,1,.276-1.366,3.108,3.108,0,0,0,.276-1.366,0.768,0.768,0,0,0-.329-0.552A1.161,1.161,0,0,0,9.188,13.9a1.13,1.13,0,0,0-.443.231,4.911,4.911,0,0,0-.657.614q-0.431.457-.715,0.716a1.961,1.961,0,0,1-.42.32,4.5,4.5,0,0,0-.714,1.286,0.868,0.868,0,0,1-.475.65l-0.986.351L4.12,19.1,4.894,20l0.015,0.1a9.026,9.026,0,0,1-.49.973,10.166,10.166,0,0,0-.736,2.418Q3.6,23.9,3.474,24.479T3.258,25.837q-0.369,2.583-.588,3.92a12.631,12.631,0,0,1-.283,1.471q-0.181.462-.311,0.854a2.834,2.834,0,0,0-.149.685,0.974,0.974,0,0,1-.164.656,2,2,0,0,1-.555.527q-0.516.3-.827,0.515a1.89,1.89,0,0,0-.381.3,2.076,2.076,0,0,0-.371.873,3.617,3.617,0,0,0,.005,1.17q0.015,0.1.046,0.242a2.03,2.03,0,0,0,.124.355Q-0.24,37.664-.256,37.843Zm6.235-5.114q-0.451.108-.654,0.137A0.254,0.254,0,0,1,5,32.622,2.233,2.233,0,0,1,4.977,32.4a0.55,0.55,0,0,1,.076-0.261,28.661,28.661,0,0,0,.906-2.879,7.447,7.447,0,0,0,.268-2q0.388-.885.589-1.433a7.188,7.188,0,0,0,.237-0.718,7.321,7.321,0,0,1,.5-2.084,1.151,1.151,0,0,1,.737-0.771,1.365,1.365,0,0,1,.7.085,2.009,2.009,0,0,1,.692.479q0.251,0.3.51,0.578t0.513,0.6q0.151,0.185.28,0.353c0.086,0.112.146,0.193,0.181,0.243a2.438,2.438,0,0,0,.107.658q0.108,0.388.255,0.823l0.041,0.844,0.377,0.877q-0.028.522-.008,1.007a8.309,8.309,0,0,0,.075.87q0.033,0.224.162,0.826a0.425,0.425,0,0,1-.058.309,0.548,0.548,0,0,1-.283.2q-0.493.177-.961,0.38t-0.961.38q-0.29,0-.583-0.019a6.418,6.418,0,0,0-1.347.426,6.416,6.416,0,0,1-1.347.426Q6.429,32.621,5.979,32.729Zm13.448,4.859a5.076,5.076,0,0,1,.394.709q0.378-.532.78-1.047a1.5,1.5,0,0,1,.219.362,6.256,6.256,0,0,0,.872,1.779,10.455,10.455,0,0,0,1.454,1.653q0.817,0.772,1.647,1.625a1.214,1.214,0,0,1-.124.64,4.19,4.19,0,0,1-.492.818q-0.427.622-.973,1.427Q23,46,22.763,46.448t-0.457.917q-0.21.549-.4,1.022a4.928,4.928,0,0,0-.273.9q-0.175.647-.235,1.019a2.057,2.057,0,0,0-.042.493q0.187,1.278.36,2.041a4.437,4.437,0,0,0,.314,1.011,1.709,1.709,0,0,0,1.023.69,4.479,4.479,0,0,0,1.755.023,7.806,7.806,0,0,0,4.62-3.059,7.639,7.639,0,0,0,2.189-5.087Q31.6,46.131,31.6,45.9c0-.152,0-0.262,0-0.332a11.227,11.227,0,0,0-.925-2.29,5.381,5.381,0,0,0-1.134-1.451q-0.332-.283-0.563-0.519a0.836,0.836,0,0,1-.261-0.438q0.527-1.072,1.052-2.019,0.449-.894.773-1.45t0.441-.738l-1.044-1.754q-1.223,1.982-1.955,3.073a5.051,5.051,0,0,1-1.018,1.258,4.752,4.752,0,0,1-.526-0.338,3.045,3.045,0,0,1-.4-0.355q-0.684-.708-1.091-1.157t-0.53-.575a3.62,3.62,0,0,1-.448-0.94,8.1,8.1,0,0,1-.3-1.355q0.065-.548.124-0.992,0.326-.462.612-0.846t0.549-.712q0.557-.869,1.139-1.71t1.1-1.684a20.306,20.306,0,0,0,1.224-2.189,2.555,2.555,0,0,0,.331-1.209,3.089,3.089,0,0,0-.514-1.459,0.952,0.952,0,0,0-.937-0.381,3.066,3.066,0,0,0-1.528.679A4.555,4.555,0,0,0,24.6,25.6q-1.013,1.578-1.948,2.979a12.229,12.229,0,0,0-1.008,1.754,4.076,4.076,0,0,0-.386,1.331q-0.221.613-.394,1.063t-0.285.819q-0.343.631-.633,1.056a7.1,7.1,0,0,1-.521.688q-0.248.43-.408,0.754a5.161,5.161,0,0,1-.278.507Q19.159,37.171,19.427,37.588Zm7.759,6.721a3.745,3.745,0,0,1,.635.8q0.28,0.5.466,0.916a2.917,2.917,0,0,1,.233.743,4.893,4.893,0,0,1-1.168,3.5,4.677,4.677,0,0,1-2.959,2.163,1.007,1.007,0,0,1-.686-0.086,0.716,0.716,0,0,1-.3-0.537,4.484,4.484,0,0,1,.15-1.1,5.365,5.365,0,0,1,.313-1.123q0.369-.738.694-1.49t0.654-1.484q0.587-1.226.941-1.858a1.588,1.588,0,0,1,.475-0.65A0.689,0.689,0,0,1,27.186,44.309ZM29.869,34.6a2.189,2.189,0,0,1-.187.349q0.242,0.38.446,0.712l0.367,0.6q0.1,0.13.169,0.234a0.525,0.525,0,0,1,.082.206,2.98,2.98,0,0,1,.022.432,3.5,3.5,0,0,0-.559,1.066,2.46,2.46,0,0,0-.081,1.079,2.054,2.054,0,0,0,.682,1.4,1.959,1.959,0,0,0,1.51.266,1.318,1.318,0,0,0,.427-0.2q0.285-.176.679-0.462,0.616-.463,1.1-0.887a8.868,8.868,0,0,0,.843-0.828q0.173-.232.592-0.77t1.022-1.372q0.465-.5.817-0.865l0.585-.6q0.135-.206.241-0.336t0.192-.246a1.1,1.1,0,0,1,.271.365,1.5,1.5,0,0,1,.106.368,3.682,3.682,0,0,0,1.164,2.151,2.687,2.687,0,0,0,2.139.454,3,3,0,0,0,1.1-.4,5.264,5.264,0,0,0,1.075-.872,11.837,11.837,0,0,0,.838-1q0.39-.523.794-1.018a7.85,7.85,0,0,0-.411-0.758q-0.26-.428-0.633-1a1.941,1.941,0,0,1-.259.286,2.4,2.4,0,0,1-.213.176q-0.119.183-.227,0.365t-0.224.385a2.3,2.3,0,0,1-.316.316,0.7,0.7,0,0,1-.34.153,1.174,1.174,0,0,1-1.06-.374,1.853,1.853,0,0,1-.526-1.115q-0.136-.933-0.244-1.954a2.084,2.084,0,0,0-.411-0.966,0.74,0.74,0,0,0-.7-0.24,2.8,2.8,0,0,0-1.423.757,8.65,8.65,0,0,0-1.5,1.909q-0.165.148-.295,0.25l-0.26.2a6.544,6.544,0,0,0-.543.608q-0.379.459-.976,1.189a9.573,9.573,0,0,1-.942,1.07,3.474,3.474,0,0,1-.862.624l-0.169-.162q0.467-.918.758-1.479a6.58,6.58,0,0,1,.412-0.724q0.991-1.16,1.567-1.97a4.772,4.772,0,0,0,.714-1.286,9.011,9.011,0,0,0,.662-0.718q0.245-.3.332-0.422,0.112-.223.277-0.517a9.3,9.3,0,0,0,.958-1.1,9.922,9.922,0,0,0,.66-1.019q0.523-.532.977-0.972a1.379,1.379,0,0,0,.4-0.618,1.769,1.769,0,0,0,.043-0.773,0.8,0.8,0,0,0-.346-0.592,1.172,1.172,0,0,0-.814-0.109,4.74,4.74,0,0,0-2.216,1.215A22.157,22.157,0,0,0,35.3,28.16a6.052,6.052,0,0,1-.66.729q-0.311.284-.516,0.438-0.408.474-.667,0.823a6.616,6.616,0,0,0-.393.575,2.791,2.791,0,0,0-.49.4,1.421,1.421,0,0,0-.31.5,3.568,3.568,0,0,1-.252.545q-0.117.193-.2,0.309l-1.669,1.487Q29.987,34.346,29.869,34.6Zm15.749-1.815a1.132,1.132,0,0,1,.134.208q0.234,0.463.441,0.817t0.344,0.582q0.158-.334.291-0.561a3.247,3.247,0,0,0,.179-0.337q0.927-1.172,1.817-2.317a14.364,14.364,0,0,0,.992-1.3,7.445,7.445,0,0,0,.642-1.14l0.185-.151a0.234,0.234,0,0,1,.189.159q-0.163.583-.315,1.1-0.027.812-.033,1.621-0.013.479-.024,0.833a3.383,3.383,0,0,0,.019.557,2.268,2.268,0,0,1-.081.3,6.187,6.187,0,0,0-.061,1.429q0.045,0.875.217,2.051a2.5,2.5,0,0,0,.671,1.539,1.643,1.643,0,0,0,1.406.333,1.987,1.987,0,0,0,.839-0.361,3.47,3.47,0,0,0,.843-0.9q0.309-.439.6-0.9t0.6-.917q0.312-.419.576-0.737t0.435-.571q0.457-.419.778-0.777a5.879,5.879,0,0,0,.491-0.611L56.735,31q-1.191,1.355-1.865,2.055a3.537,3.537,0,0,1-.8.718,0.338,0.338,0,0,1-.328-0.118,0.94,0.94,0,0,1-.173-0.472,10.986,10.986,0,0,1-.035-1.446q0.018-1.08.1-2.833,0.217-2.208.416-3.833t0.4-2.69q0.045-.4.063-0.7t0.029-.512l1.334-.485a0.706,0.706,0,0,0,.255-0.732,12.149,12.149,0,0,0-.163-1.893,1.954,1.954,0,0,0-.12-0.47,0.456,0.456,0,0,0-.21-0.249,1.572,1.572,0,0,1-.241-0.182,1.059,1.059,0,0,1-.135-0.157A5.479,5.479,0,0,1,55.4,15.8a3.879,3.879,0,0,0,.1-1.268,1.343,1.343,0,0,0-.394-0.854,0.95,0.95,0,0,0-.8-0.195q-0.915.134-1.439,2.159t-1.223,2.21l-0.7-.105-0.542.193q-0.246.088-.5,0.187a3.494,3.494,0,0,0-.6-0.015,9.286,9.286,0,0,0-.94.1q-0.255.1-.551,0.2a8.735,8.735,0,0,0-.9,0,10.711,10.711,0,0,0-1.073.105,0.917,0.917,0,0,0-.742.813,5.679,5.679,0,0,0,.017,2.029,0.433,0.433,0,0,0,.178.3,0.948,0.948,0,0,0,.407.158q0.174,0.058.357,0.1t0.4,0.118q0.162-.024.541-0.058t0.541-.058l2.537-.371a1.829,1.829,0,0,0,.406-0.132,1.83,1.83,0,0,1,.385-0.129,0.283,0.283,0,0,1,.212.031,0.251,0.251,0,0,1,.088.174q-0.164.584-.313,0.978a5.962,5.962,0,0,1-.279.642,39.758,39.758,0,0,1-2.085,4.667,23.185,23.185,0,0,1-2.343,3.607q-0.216.363-.373,0.635t-0.255.452l-0.058.174A0.563,0.563,0,0,1,45.618,32.787Zm11.412-.673a7.657,7.657,0,0,1,.391.689,1.913,1.913,0,0,0,.252-0.265,1.752,1.752,0,0,0,.136-0.206,0.243,0.243,0,0,1,.18.026,0.21,0.21,0,0,1,.073.145q-0.037.316-.059,0.589c0,0.083,0,.173,0,0.27a2.32,2.32,0,0,0,.027.328,9.552,9.552,0,0,0,.341,1.411q0.255,0.823.664,1.924a0.767,0.767,0,0,0,.593.442,3.425,3.425,0,0,0,1.233,0,1.524,1.524,0,0,0,.813-0.533,8.681,8.681,0,0,0,1-1.39q0.461-.814.778-1.482a9.1,9.1,0,0,0,.472-1.167q0.277-.517.57-1t0.558-.931l0.122-.018a3.2,3.2,0,0,1,.989,1.026,2.139,2.139,0,0,0,2.088.887,9.792,9.792,0,0,0,1.407-.3,2.831,2.831,0,0,0,.893-0.41q0.443-.375.9-0.752t0.892-.773q-0.3-.495-0.582-0.931t-0.5-.818q-0.826.307-1.44,0.5a1.467,1.467,0,0,1-.945-0.152,2.19,2.19,0,0,1-.77-0.8q-0.035-.1-0.279-0.633T67.159,26.26a2.813,2.813,0,0,0-.5-0.84,0.622,0.622,0,0,0-.534-0.253,0.8,0.8,0,0,0-.255.1q-0.154.085-.344,0.2l-0.666.408a2.457,2.457,0,0,0-.645.975,15.308,15.308,0,0,0-.754,2.214q-0.453,1.58-.834,2.588a5.2,5.2,0,0,1-.716,1.41,5.062,5.062,0,0,1-.333.484,2.379,2.379,0,0,0-.247.368,0.2,0.2,0,0,1-.218-0.144,1.977,1.977,0,0,1-.126-0.51,13.2,13.2,0,0,1-.108-2.088q0.019-1.215.182-2.794,0.828-1.427,1.463-2.473t1.03-1.746q0.81-1.4,1.253-2.276a6.287,6.287,0,0,0,.517-1.215q0.341-.505.586-0.884a2.445,2.445,0,0,0,.326-0.68q0.377-.822.607-1.446t0.377-1.039q0.326-.752.547-1.365t0.374-.987q0.208-.984.411-1.728t0.395-1.27A2.4,2.4,0,0,0,69,10.883a4.038,4.038,0,0,0-.01-0.5q0.008-.229.036-0.461a0.813,0.813,0,0,1,.15-0.395q0.039-.441.057-0.744A2.486,2.486,0,0,0,69.219,8.3a2.616,2.616,0,0,0-.427-1.223,0.833,0.833,0,0,0-.833-0.313,1.034,1.034,0,0,1-.278.082,1.974,1.974,0,0,0-.471-0.387,1.879,1.879,0,0,0-.772.393A7.333,7.333,0,0,0,65.366,7.89q-0.656.759-1.285,1.628t-1.233,1.849q-0.329.587-.83,1.551t-1.156,2.3q-0.239.636-.429,1.109a7.746,7.746,0,0,0-.285.819,6.726,6.726,0,0,1-.191.681,3.044,3.044,0,0,1-.217.5,9.9,9.9,0,0,0-.592,1.62,11.064,11.064,0,0,0-.339,1.936q-0.131.807-.253,1.457t-0.246,1.083q-0.187,1.416-.279,2.486T57.857,28.7a1.1,1.1,0,0,1-.149.54,4.1,4.1,0,0,1-.442.665,5.146,5.146,0,0,1-.329.442q-0.211.259-.6,0.71Q56.759,31.676,57.03,32.114Zm9.983-21.677a0.485,0.485,0,0,1,.085.226,2.737,2.737,0,0,1-.129.889q-0.165.646-.524,1.735-0.62,2-1.182,3.541a16.99,16.99,0,0,1-1.156,2.583q-0.585,1.1-1.055,1.926t-0.808,1.351a4.605,4.605,0,0,1-.577.872l-0.116-.087,0.173-.73q0.147-.622.355-1.751,0.24-1.05.48-2.246a1.216,1.216,0,0,1,.037-0.524,1.724,1.724,0,0,1,.284-0.539l0.868-1.857q0.442-.945.9-1.9a28.348,28.348,0,0,1,1.359-2.613,2.168,2.168,0,0,1,.776-0.932A0.225,0.225,0,0,1,67.013,10.437Zm4.414,18.091a2.173,2.173,0,0,1-.187.349q0.242,0.38.446,0.712l0.367,0.6c0.068,0.087.124,0.165,0.169,0.234a0.525,0.525,0,0,1,.082.206,2.984,2.984,0,0,1,.022.432,3.5,3.5,0,0,0-.559,1.066,2.459,2.459,0,0,0-.081,1.079,2.053,2.053,0,0,0,.682,1.4,1.959,1.959,0,0,0,1.51.266,1.316,1.316,0,0,0,.427-0.2q0.285-.176.679-0.462,0.616-.463,1.1-0.887A8.859,8.859,0,0,0,76.93,32.5q0.173-.232.592-0.771t1.022-1.372q0.465-.5.817-0.865l0.585-.6q0.136-.206.241-0.336t0.192-.246a1.1,1.1,0,0,1,.271.364,1.5,1.5,0,0,1,.106.368,3.681,3.681,0,0,0,1.164,2.151,2.687,2.687,0,0,0,2.139.454,3,3,0,0,0,1.1-.4,5.265,5.265,0,0,0,1.075-.872,11.824,11.824,0,0,0,.838-1q0.39-.523.794-1.018a7.829,7.829,0,0,0-.411-0.759q-0.26-.428-0.632-1a1.957,1.957,0,0,1-.259.287,2.371,2.371,0,0,1-.213.176q-0.118.183-.227,0.365t-0.224.385a2.3,2.3,0,0,1-.317.316,0.7,0.7,0,0,1-.34.153,1.174,1.174,0,0,1-1.06-.374,1.853,1.853,0,0,1-.526-1.115q-0.136-.933-0.244-1.954a2.082,2.082,0,0,0-.411-0.966,0.74,0.74,0,0,0-.7-0.24,2.8,2.8,0,0,0-1.423.757,8.646,8.646,0,0,0-1.5,1.909q-0.165.148-.3,0.25l-0.26.2a6.558,6.558,0,0,0-.543.608q-0.379.46-.977,1.189a9.572,9.572,0,0,1-.942,1.07,3.475,3.475,0,0,1-.862.623l-0.169-.162q0.467-.918.758-1.479a6.553,6.553,0,0,1,.412-0.723q0.991-1.16,1.567-1.97a4.769,4.769,0,0,0,.714-1.286,9.031,9.031,0,0,0,.662-0.718q0.245-.305.332-0.422,0.112-.223.277-0.517a9.318,9.318,0,0,0,.958-1.1,9.9,9.9,0,0,0,.659-1.019q0.523-.532.977-0.972a1.379,1.379,0,0,0,.4-0.618,1.768,1.768,0,0,0,.043-0.773,0.8,0.8,0,0,0-.346-0.592,1.172,1.172,0,0,0-.814-0.109A4.741,4.741,0,0,0,79.713,19a22.156,22.156,0,0,0-2.854,3.091,6.053,6.053,0,0,1-.66.729q-0.311.284-.516,0.438-0.408.474-.667,0.823a6.654,6.654,0,0,0-.393.575,2.8,2.8,0,0,0-.49.4,1.422,1.422,0,0,0-.31.5,3.571,3.571,0,0,1-.252.545q-0.117.194-.2,0.309L71.7,27.9Q71.546,28.272,71.427,28.528Zm46.233-6.435a7.423,7.423,0,0,1-.839,1.066,4.612,4.612,0,0,1-1.023.8,4.345,4.345,0,0,0-.331.5c-0.081.15-.149,0.278-0.2,0.382a1.951,1.951,0,0,0-.725.282,2.656,2.656,0,0,0-.728.7q-0.442.231-.757,0.421a3.028,3.028,0,0,0-.5.363q-1.124.393-1.769,0.59t-0.746.213a4.8,4.8,0,0,1-2.17-.17A6.419,6.419,0,0,1,105.81,26.1q-0.314-.161-0.656-0.381a1.046,1.046,0,0,1-.292-0.227,1.057,1.057,0,0,1-.2-0.282,5.515,5.515,0,0,0-.438-1.014,4.608,4.608,0,0,0-.525-0.752q-0.474-.552-0.7-0.84a1.181,1.181,0,0,1-.243-0.389l-0.067-1.876q-0.218-.486-0.488-1.069,0.081-1.007.1-1.745t0.027-1.237a15.294,15.294,0,0,1,.3-3.309,18.634,18.634,0,0,1,1.037-3.4,11.836,11.836,0,0,1,1.967-3.21,5.519,5.519,0,0,1,2.423-1.639l0.558-.227a6.421,6.421,0,0,0,.725-0.355q0.552,0.086,1.106.118t1.1,0.078a1.725,1.725,0,0,1,.917.529,1.816,1.816,0,0,1,.419.954,1.919,1.919,0,0,1-.141.943,4.386,4.386,0,0,1-.7,1.17,3.994,3.994,0,0,0-.274,1.087q-0.142.86-.279,2.331-0.135,1.346-.176,2.2a7.345,7.345,0,0,0,0,1.14q0.177,0.783.35,1.545a2.215,2.215,0,0,1-.009.436,2.262,2.262,0,0,0-.005.457,0.246,0.246,0,0,0,.216.207,1.95,1.95,0,0,0,.64-0.021q0.9-.38,1.676-0.7a1.347,1.347,0,0,0,.407-0.754,18.539,18.539,0,0,0,.463-1.923q0.246-1.155.39-1.933a4.788,4.788,0,0,0,.118-1.105q0.064-1.253.082-2.2t0.049-1.572a5.939,5.939,0,0,0-.05-0.77q-0.061-.561-0.2-1.494a9.421,9.421,0,0,0-.83-2.988A1.745,1.745,0,0,0,113.226.833l-0.667-.027a2.642,2.642,0,0,0-1.095-.265,8.206,8.206,0,0,0-1.6.1,8.867,8.867,0,0,0-1.767.673,6.087,6.087,0,0,0-1.534.846q-0.178.192-.311,0.356a1.6,1.6,0,0,1-.224.24l-0.639.446q-0.264.184-.454,0.294-0.6.751-1.032,1.239a6.59,6.59,0,0,1-.752.742c-0.2.293-.381,0.56-0.525,0.8s-0.267.44-.369,0.593q-0.711.954-1.237,1.818a10.109,10.109,0,0,0-.826,1.654q-0.327,1.022-.645,2.1t-0.64,2.145a4.735,4.735,0,0,0-.123.505,1.216,1.216,0,0,0-.016.386l0.126,0.438a9.124,9.124,0,0,1-.171.958q-0.1.43-.2,0.734,0.034,1.508.054,2.355t0.044,1.009a1.788,1.788,0,0,0,.16.453q0.136,0.291.366,0.734l-0.09.946a2.548,2.548,0,0,0,.225.692q0.222,0.527.637,1.378l0.8,1.665a4.617,4.617,0,0,0,.683.916,8.441,8.441,0,0,0,1.153,1.013,7.792,7.792,0,0,0,1.315.844,1.944,1.944,0,0,0,.98.251l0.6,0,0.28,0.208a3.415,3.415,0,0,1,.626.033q0.379,0.048.929,0.113,0.444,0.059.832,0.1a2.935,2.935,0,0,0,.693-0.008,10.6,10.6,0,0,0,1.883-.451,7.481,7.481,0,0,0,1.684-.816,13.51,13.51,0,0,0,1.31-.886q0.775-.58,1.78-1.369,1.11-.909,1.925-1.649t1.354-1.3a20.537,20.537,0,0,0-1.084-1.748h0Zm7.037,2.671a3.914,3.914,0,0,0-.652-0.993,2.669,2.669,0,0,0-.95-0.752,1.848,1.848,0,0,0-1.025-.14,0.893,0.893,0,0,0-.513.251,0.981,0.981,0,0,0-.253.607c-0.025.211-.049,0.422-0.074,0.633s-0.054.43-.09,0.656l0.28,0.5-0.122.163a4.122,4.122,0,0,0,1.189,1.609,1.955,1.955,0,0,0,1.506.381,0.541,0.541,0,0,0,.374-0.21,1.177,1.177,0,0,0,.187-0.494,1.872,1.872,0,0,0,.382-0.574,1.087,1.087,0,0,0,.072-0.57A3.993,3.993,0,0,0,124.7,24.764Z"/>
</svg>
