<svg xmlns="http://www.w3.org/2000/svg" width="253" height="253" viewBox="0 0 253 253">
  <defs>
    <style>
      .cls-1 {
        fill: #fff;
        fill-rule: evenodd;
      }
    </style>
  </defs>
  <path id="Rounded_Rectangle_1_copy" data-name="Rounded Rectangle 1 copy" class="cls-1" d="M126.5,0A126.5,126.5,0,1,1,0,126.5,126.5,126.5,0,0,1,126.5,0Zm0.494,28.043a98.952,98.952,0,1,1-98.951,98.952A98.952,98.952,0,0,1,126.994,28.043Zm-54.5,133.237,79.25-30.732a13.5,13.5,0,1,1,9.762,25.174l-79.25,30.732A13.5,13.5,0,0,1,72.494,161.279Zm18-64,79.25-30.732a13.5,13.5,0,1,1,9.762,25.173l-79.25,30.732A13.5,13.5,0,0,1,90.494,97.279Z"/>
</svg>
