<svg id="Group_1_copy_2" data-name="Group 1 copy 2" xmlns="http://www.w3.org/2000/svg" width="50" height="50" viewBox="0 0 50 50">
  <defs>
    <style>
      .cls-1 {
        fill: #e3f8ed;
      }

      .cls-2 {
        fill: #42d186;
      }

      .cls-2, .cls-3, .cls-5, .cls-6 {
        fill-rule: evenodd;
      }

      .cls-3 {
        fill: #ddb177;
      }

      .cls-4 {
        fill: #f8ca8c;
      }

      .cls-5 {
        fill: #bf8434;
      }

      .cls-6 {
        fill: #905d2b;
      }
    </style>
  </defs>
  <circle class="cls-1" cx="25" cy="25" r="25"/>
  <path id="Rounded_Rectangle_1_copy_3" data-name="Rounded Rectangle 1 copy 3" class="cls-2" d="M17.333,31H32.667A8.333,8.333,0,0,1,41,39.333V40a1,1,0,0,1-1,1,20.75,20.75,0,0,1-15.083,6C14.861,47,10,41,10,41a1,1,0,0,1-1-1V39.333A8.333,8.333,0,0,1,17.333,31Z"/>
  <path id="Rounded_Rectangle_3" data-name="Rounded Rectangle 3" class="cls-3" d="M24.333,25.333H26A1.667,1.667,0,0,1,27.667,27v4.667A1.667,1.667,0,0,1,26,33.333H24.333a1.667,1.667,0,0,1-1.667-1.667V27A1.667,1.667,0,0,1,24.333,25.333Z"/>
  <path id="Rounded_Rectangle_2" data-name="Rounded Rectangle 2" class="cls-4" d="M21.333,13.125h7.333A3.333,3.333,0,0,1,32,16.458v7.208A6.333,6.333,0,0,1,25.667,30H24.333A6.333,6.333,0,0,1,18,23.667V16.458A3.333,3.333,0,0,1,21.333,13.125Z"/>
  <path class="cls-5" d="M31.987,19a2.006,2.006,0,1,1,0,4.011"/>
  <path id="Ellipse_2_copy" data-name="Ellipse 2 copy" class="cls-5" d="M18.013,23.011a2.006,2.006,0,1,1,0-4.011"/>
  <path class="cls-6" d="M32.048,18.007l0.86-.434s0.685-4.9-2.006-7.236-5.936-3.358-9.886-1.013c0,0-5.634-2.7-6.018,2.46C14.624,16.809,22.627,18,27.606,13.954,27.606,13.954,31.972,14.146,32.048,18.007Z"/>
</svg>
