<svg id="Group_1_copy_3" data-name="Group 1 copy 3" xmlns="http://www.w3.org/2000/svg" width="50" height="50" viewBox="0 0 50 50">
  <defs>
    <style>
      .cls-1 {
        fill: #fef5e4;
      }

      .cls-2 {
        fill: #f7ba4d;
      }

      .cls-2, .cls-3, .cls-5, .cls-6 {
        fill-rule: evenodd;
      }

      .cls-3 {
        fill: #ddb177;
      }

      .cls-4 {
        fill: #f8ca8c;
      }

      .cls-5 {
        fill: #bf8434;
      }

      .cls-6 {
        fill: #905d2b;
      }
    </style>
  </defs>
  <circle class="cls-1" cx="25" cy="25" r="25"/>
  <path id="Rounded_Rectangle_1" data-name="Rounded Rectangle 1" class="cls-2" d="M17.333,31H32.667A8.333,8.333,0,0,1,41,39.333V40a1,1,0,0,1-1,1,20.75,20.75,0,0,1-15.083,6C14.861,47,10,41,10,41a1,1,0,0,1-1-1V39.333A8.333,8.333,0,0,1,17.333,31Z"/>
  <path id="Rounded_Rectangle_3" data-name="Rounded Rectangle 3" class="cls-3" d="M24.333,25.333H26A1.667,1.667,0,0,1,27.667,27v4.667A1.667,1.667,0,0,1,26,33.333H24.333a1.667,1.667,0,0,1-1.667-1.667V27A1.667,1.667,0,0,1,24.333,25.333Z"/>
  <path id="Rounded_Rectangle_2" data-name="Rounded Rectangle 2" class="cls-4" d="M21.333,13.125h7.333A3.333,3.333,0,0,1,32,16.458v7.208A6.333,6.333,0,0,1,25.667,30H24.333A6.333,6.333,0,0,1,18,23.667V16.458A3.333,3.333,0,0,1,21.333,13.125Z"/>
  <path class="cls-5" d="M31.987,19a2.006,2.006,0,1,1,0,4.011"/>
  <path id="Ellipse_2_copy" data-name="Ellipse 2 copy" class="cls-5" d="M18.013,23.011a2.006,2.006,0,1,1,0-4.011"/>
  <path class="cls-6" d="M19.672,15.108S27.186,14.594,32.545,27c0,0,3.22-17-7.529-17,0,0-3.683.04-5.343,2.676,0,0-2.672,0-2.672,3.162a51.289,51.289,0,0,0,.729,7.3S18,15.979,19.672,15.108Z"/>
</svg>
